# xmcd
#
# Track frame offsets:
#	150
#	18920
#	34195
#	46873
#	64907
#	77040
#	92130
#	108850
#	128450
#	145843
#	167940
#	183925
#	203288
#	216668
#
# Disc length: 3069 seconds
# Revision: 3
# Processed by: cddbd v1.5.2PL0 Copyright (c) Steve Scherf et al.
# Submitted via: dBpowerAMP V12.0
#
DISCID=b80bfb0e
DTITLE=Mary Flower - Bywater Dance
DYEAR=2005
DGENRE=Blues
TTITLE0=Blues My Naughty Sweetie Gives to Me
TTITLE1=Raise the Devil
TTITLE2=Crow Jane
TTITLE3=New Orleans Hop Scop Blues
TTITLE4=La Grippe
TTITLE5=Last Kind Word Blues
TTITLE6=Terminal Rag
TTITLE7=Brother, Can You Spare a Dime?
TTITLE8=Papa's on the Housetop
TTITLE9=Hudson River Rag
TTITLE10=Nobody's Fault But Mine
TTITLE11=Main Street Blues
TTITLE12=Built Right on the Ground
TTITLE13=Good News Waltz
EXTD=
EXTT0=
EXTT1=
EXTT2=
EXTT3=
EXTT4=
EXTT5=
EXTT6=
EXTT7=
EXTT8=
EXTT9=
EXTT10=
EXTT11=
EXTT12=
EXTT13=
PLAYORDER=
